{
	"asset":{
		"generator":"Khronos glTF Blender I/O v4.2.60",
		"version":"2.0"
	},
	"scene":0,
	"scenes":[
		{
			"name":"Scene",
			"nodes":[
				0
			]
		}
	],
	"nodes":[
		{
			"mesh":0,
			"name":"eighty",
			"scale":[
				0.02499999850988388,
				0.02499999850988388,
				0.02499999850988388
			]
		}
	],
	"meshes":[
		{
			"name":"Mesh_1",
			"primitives":[
				{
					"attributes":{
						"POSITION":0,
						"NORMAL":1,
						"TEXCOORD_0":2
					},
					"indices":3
				}
			]
		}
	],
	"accessors":[
		{
			"bufferView":0,
			"componentType":5126,
			"count":5722,
			"max":[
				172.62106323242188,
				153.56356811523438,
				20.006105422973633
			],
			"min":[
				-140.37893676757812,
				-139.73641967773438,
				-20.003894805908203
			],
			"type":"VEC3"
		},
		{
			"bufferView":1,
			"componentType":5126,
			"count":5722,
			"type":"VEC3"
		},
		{
			"bufferView":2,
			"componentType":5126,
			"count":5722,
			"type":"VEC2"
		},
		{
			"bufferView":3,
			"componentType":5123,
			"count":29712,
			"type":"SCALAR"
		}
	],
	"bufferViews":[
		{
			"buffer":0,
			"byteLength":68664,
			"byteOffset":0,
			"target":34962
		},
		{
			"buffer":0,
			"byteLength":68664,
			"byteOffset":68664,
			"target":34962
		},
		{
			"buffer":0,
			"byteLength":45776,
			"byteOffset":137328,
			"target":34962
		},
		{
			"buffer":0,
			"byteLength":59424,
			"byteOffset":183104,
			"target":34963
		}
	],
	"buffers":[
		{
			"byteLength":242528,
			"uri":"scene.bin"
		}
	]
}
