{
	"asset":{
		"generator":"Khronos glTF Blender I/O v4.2.60",
		"version":"2.0"
	},
	"scene":0,
	"scenes":[
		{
			"name":"Scene",
			"nodes":[
				0
			]
		}
	],
	"nodes":[
		{
			"mesh":0,
			"name":"Curve.003",
			"rotation":[
				0.7071068286895752,
				0,
				0,
				0.7071068286895752
			],
			"scale":[
				22.28204917907715,
				22.28204917907715,
				22.28204917907715
			]
		}
	],
	"materials":[
		{
			"doubleSided":true,
			"name":"SVGMat",
			"pbrMetallicRoughness":{
				"baseColorFactor":[
					0,
					0,
					0,
					1
				],
				"metallicFactor":0,
				"roughnessFactor":0.4000000059604645
			}
		}
	],
	"meshes":[
		{
			"name":"Curve.003",
			"primitives":[
				{
					"attributes":{
						"POSITION":0,
						"NORMAL":1
					},
					"indices":2,
					"material":0
				}
			]
		}
	],
	"accessors":[
		{
			"bufferView":0,
			"componentType":5126,
			"count":33554,
			"max":[
				0.18716643750667572,
				0.0061421082355082035,
				0.1376521736383438
			],
			"min":[
				-0.19157186150550842,
				-0.0058575901202857494,
				-0.13398991525173187
			],
			"type":"VEC3"
		},
		{
			"bufferView":1,
			"componentType":5126,
			"count":33554,
			"type":"VEC3"
		},
		{
			"bufferView":2,
			"componentType":5123,
			"count":201264,
			"type":"SCALAR"
		}
	],
	"bufferViews":[
		{
			"buffer":0,
			"byteLength":402648,
			"byteOffset":0,
			"target":34962
		},
		{
			"buffer":0,
			"byteLength":402648,
			"byteOffset":402648,
			"target":34962
		},
		{
			"buffer":0,
			"byteLength":402528,
			"byteOffset":805296,
			"target":34963
		}
	],
	"buffers":[
		{
			"byteLength":1207824,
			"uri":"scene.bin"
		}
	]
}
