{
	"asset":{
		"generator":"Khronos glTF Blender I/O v4.2.60",
		"version":"2.0"
	},
	"scene":0,
	"scenes":[
		{
			"name":"Scene",
			"nodes":[
				0
			]
		}
	],
	"nodes":[
		{
			"mesh":0,
			"name":"Curve.003",
			"rotation":[
				0.7071068286895752,
				0,
				0,
				0.7071068286895752
			],
			"scale":[
				22.28204917907715,
				22.28204917907715,
				22.28204917907715
			]
		}
	],
	"materials":[
		{
			"doubleSided":true,
			"name":"SVGMat",
			"pbrMetallicRoughness":{
				"baseColorFactor":[
					0,
					0,
					0,
					1
				],
				"metallicFactor":0,
				"roughnessFactor":0.4000000059604645
			}
		}
	],
	"meshes":[
		{
			"name":"Curve.003",
			"primitives":[
				{
					"attributes":{
						"POSITION":0,
						"NORMAL":1
					},
					"indices":2,
					"material":0
				}
			]
		}
	],
	"accessors":[
		{
			"bufferView":0,
			"componentType":5126,
			"count":6718,
			"max":[
				0.1871720552444458,
				0.006144244689494371,
				0.1377255916595459
			],
			"min":[
				-0.19160689413547516,
				-0.00585763156414032,
				-0.13400420546531677
			],
			"type":"VEC3"
		},
		{
			"bufferView":1,
			"componentType":5126,
			"count":6718,
			"type":"VEC3"
		},
		{
			"bufferView":2,
			"componentType":5123,
			"count":40248,
			"type":"SCALAR"
		}
	],
	"bufferViews":[
		{
			"buffer":0,
			"byteLength":80616,
			"byteOffset":0,
			"target":34962
		},
		{
			"buffer":0,
			"byteLength":80616,
			"byteOffset":80616,
			"target":34962
		},
		{
			"buffer":0,
			"byteLength":80496,
			"byteOffset":161232,
			"target":34963
		}
	],
	"buffers":[
		{
			"byteLength":241728,
			"uri":"scene.bin"
		}
	]
}
