{
	"asset":{
		"generator":"Khronos glTF Blender I/O v4.2.60",
		"version":"2.0"
	},
	"scene":0,
	"scenes":[
		{
			"name":"Scene",
			"nodes":[
				0
			]
		}
	],
	"nodes":[
		{
			"mesh":0,
			"name":"Curve.017",
			"rotation":[
				0.7071068286895752,
				0,
				0,
				0.7071068286895752
			],
			"scale":[
				16,
				16,
				16
			]
		}
	],
	"materials":[
		{
			"doubleSided":true,
			"name":"SVGMat",
			"pbrMetallicRoughness":{
				"baseColorFactor":[
					0,
					0,
					0,
					1
				],
				"metallicFactor":0,
				"roughnessFactor":0.4000000059604645
			}
		}
	],
	"meshes":[
		{
			"name":"Curve.017",
			"primitives":[
				{
					"attributes":{
						"POSITION":0,
						"NORMAL":1
					},
					"indices":2,
					"material":0
				}
			]
		}
	],
	"accessors":[
		{
			"bufferView":0,
			"componentType":5126,
			"count":508595,
			"max":[
				0.20289377868175507,
				0.11859124898910522,
				0.1682736575603485
			],
			"min":[
				-0.20968155562877655,
				0.000741371070034802,
				-0.16025717556476593
			],
			"type":"VEC3"
		},
		{
			"bufferView":1,
			"componentType":5126,
			"count":508595,
			"type":"VEC3"
		},
		{
			"bufferView":2,
			"componentType":5125,
			"count":762924,
			"type":"SCALAR"
		}
	],
	"bufferViews":[
		{
			"buffer":0,
			"byteLength":6103140,
			"byteOffset":0,
			"target":34962
		},
		{
			"buffer":0,
			"byteLength":6103140,
			"byteOffset":6103140,
			"target":34962
		},
		{
			"buffer":0,
			"byteLength":3051696,
			"byteOffset":12206280,
			"target":34963
		}
	],
	"buffers":[
		{
			"byteLength":15257976,
			"uri":"scene.bin"
		}
	]
}
