{
	"asset":{
		"generator":"Khronos glTF Blender I/O v4.2.60",
		"version":"2.0"
	},
	"scene":0,
	"scenes":[
		{
			"name":"Scene",
			"nodes":[
				0,
				1
			]
		}
	],
	"nodes":[
		{
			"mesh":0,
			"name":"Curve.001",
			"rotation":[
				0.7071068286895752,
				0,
				0,
				0.7071068286895752
			],
			"scale":[
				16,
				16,
				16
			]
		},
		{
			"mesh":1,
			"name":"Curve.002",
			"rotation":[
				0,
				-0.7071068286895752,
				0.7071068286895752,
				1.1520233300643667e-07
			],
			"scale":[
				16,
				16,
				16
			]
		}
	],
	"materials":[
		{
			"doubleSided":true,
			"name":"SVGMat.002",
			"pbrMetallicRoughness":{
				"baseColorFactor":[
					0,
					0,
					0,
					1
				],
				"metallicFactor":0,
				"roughnessFactor":0.4000000059604645
			}
		},
		{
			"doubleSided":true,
			"name":"SVGMat.005",
			"pbrMetallicRoughness":{
				"baseColorFactor":[
					0,
					0,
					0,
					1
				],
				"metallicFactor":0,
				"roughnessFactor":0.4000000059604645
			}
		}
	],
	"meshes":[
		{
			"name":"Curve.002",
			"primitives":[
				{
					"attributes":{
						"POSITION":0,
						"NORMAL":1
					},
					"indices":2,
					"material":0
				}
			]
		},
		{
			"name":"Curve.005",
			"primitives":[
				{
					"attributes":{
						"POSITION":3,
						"NORMAL":4
					},
					"indices":5,
					"material":1
				}
			]
		}
	],
	"accessors":[
		{
			"bufferView":0,
			"componentType":5126,
			"count":28778,
			"max":[
				0.1910606175661087,
				0.12453340739011765,
				0.15247423946857452
			],
			"min":[
				-0.19240246713161469,
				0.004198900889605284,
				-0.15338316559791565
			],
			"type":"VEC3"
		},
		{
			"bufferView":1,
			"componentType":5126,
			"count":28778,
			"type":"VEC3"
		},
		{
			"bufferView":2,
			"componentType":5123,
			"count":28782,
			"type":"SCALAR"
		},
		{
			"bufferView":3,
			"componentType":5126,
			"count":16688,
			"max":[
				0.19195492565631866,
				0.11892485618591309,
				0.1494961529970169
			],
			"min":[
				-0.1931895762681961,
				0.005235778167843819,
				-0.15068207681179047
			],
			"type":"VEC3"
		},
		{
			"bufferView":4,
			"componentType":5126,
			"count":16688,
			"type":"VEC3"
		},
		{
			"bufferView":5,
			"componentType":5123,
			"count":16692,
			"type":"SCALAR"
		}
	],
	"bufferViews":[
		{
			"buffer":0,
			"byteLength":345336,
			"byteOffset":0,
			"target":34962
		},
		{
			"buffer":0,
			"byteLength":345336,
			"byteOffset":345336,
			"target":34962
		},
		{
			"buffer":0,
			"byteLength":57564,
			"byteOffset":690672,
			"target":34963
		},
		{
			"buffer":0,
			"byteLength":200256,
			"byteOffset":748236,
			"target":34962
		},
		{
			"buffer":0,
			"byteLength":200256,
			"byteOffset":948492,
			"target":34962
		},
		{
			"buffer":0,
			"byteLength":33384,
			"byteOffset":1148748,
			"target":34963
		}
	],
	"buffers":[
		{
			"byteLength":1182132,
			"uri":"scene.bin"
		}
	]
}
