{
	"asset":{
		"generator":"Khronos glTF Blender I/O v4.2.60",
		"version":"2.0"
	},
	"scene":0,
	"scenes":[
		{
			"name":"Scene",
			"nodes":[
				0
			]
		}
	],
	"nodes":[
		{
			"mesh":0,
			"name":"Curve.009",
			"rotation":[
				0.7071068286895752,
				0,
				0,
				0.7071068286895752
			],
			"scale":[
				16,
				16,
				16
			]
		}
	],
	"materials":[
		{
			"doubleSided":true,
			"name":"SVGMat.001",
			"pbrMetallicRoughness":{
				"baseColorFactor":[
					0,
					0,
					0,
					1
				],
				"metallicFactor":0,
				"roughnessFactor":0.4000000059604645
			}
		}
	],
	"meshes":[
		{
			"name":"Curve.009",
			"primitives":[
				{
					"attributes":{
						"POSITION":0,
						"NORMAL":1
					},
					"indices":2,
					"material":0
				}
			]
		}
	],
	"accessors":[
		{
			"bufferView":0,
			"componentType":5126,
			"count":8326,
			"max":[
				0.11564544588327408,
				0.09893553704023361,
				0.12511689960956573
			],
			"min":[
				-0.11704672873020172,
				-0.002547201933339238,
				-0.13445565104484558
			],
			"type":"VEC3"
		},
		{
			"bufferView":1,
			"componentType":5126,
			"count":8326,
			"type":"VEC3"
		},
		{
			"bufferView":2,
			"componentType":5123,
			"count":49884,
			"type":"SCALAR"
		}
	],
	"bufferViews":[
		{
			"buffer":0,
			"byteLength":99912,
			"byteOffset":0,
			"target":34962
		},
		{
			"buffer":0,
			"byteLength":99912,
			"byteOffset":99912,
			"target":34962
		},
		{
			"buffer":0,
			"byteLength":99768,
			"byteOffset":199824,
			"target":34963
		}
	],
	"buffers":[
		{
			"byteLength":299592,
			"uri":"scene.bin"
		}
	]
}
