{
	"asset":{
		"generator":"Khronos glTF Blender I/O v4.2.60",
		"version":"2.0"
	},
	"scene":0,
	"scenes":[
		{
			"name":"Scene",
			"nodes":[
				0,
				1,
				2
			]
		}
	],
	"nodes":[
		{
			"mesh":0,
			"name":"body",
			"rotation":[
				-0.7065633535385132,
				0,
				0,
				0.707649827003479
			],
			"scale":[
				8.42070198059082,
				8.420700073242188,
				8.420700073242188
			],
			"translation":[
				0,
				-1.3105167150497437,
				0
			]
		},
		{
			"mesh":1,
			"name":"legs",
			"rotation":[
				-0.7065633535385132,
				0,
				0,
				0.707649827003479
			],
			"scale":[
				8.42070198059082,
				8.420700073242188,
				8.420700073242188
			],
			"translation":[
				0,
				-1.3105167150497437,
				0
			]
		},
		{
			"mesh":2,
			"name":"skin",
			"rotation":[
				-0.7065633535385132,
				0,
				0,
				0.707649827003479
			],
			"scale":[
				8.42070198059082,
				8.420700073242188,
				8.420700073242188
			],
			"translation":[
				0,
				-1.3105167150497437,
				0
			]
		}
	],
	"materials":[
		{
			"doubleSided":true,
			"name":"grey",
			"pbrMetallicRoughness":{
				"metallicFactor":0,
				"roughnessFactor":0.788031816482544
			}
		}
	],
	"meshes":[
		{
			"name":"body.001",
			"primitives":[
				{
					"attributes":{
						"POSITION":0,
						"NORMAL":1,
						"TEXCOORD_0":2
					},
					"indices":3,
					"material":0
				}
			]
		},
		{
			"name":"legs.001",
			"primitives":[
				{
					"attributes":{
						"POSITION":4,
						"NORMAL":5,
						"TEXCOORD_0":6
					},
					"indices":7,
					"material":0
				}
			]
		},
		{
			"name":"skin.001",
			"primitives":[
				{
					"attributes":{
						"POSITION":8,
						"NORMAL":9,
						"TEXCOORD_0":10
					},
					"indices":11,
					"material":0
				}
			]
		}
	],
	"accessors":[
		{
			"bufferView":0,
			"componentType":5126,
			"count":7606,
			"max":[
				0.11569999903440475,
				0.0375480018556118,
				0.2883259952068329
			],
			"min":[
				-0.11569999903440475,
				-0.04526299983263016,
				0.07874699681997299
			],
			"type":"VEC3"
		},
		{
			"bufferView":1,
			"componentType":5126,
			"count":7606,
			"type":"VEC3"
		},
		{
			"bufferView":2,
			"componentType":5126,
			"count":7606,
			"type":"VEC2"
		},
		{
			"bufferView":3,
			"componentType":5123,
			"count":39078,
			"type":"SCALAR"
		},
		{
			"bufferView":4,
			"componentType":5126,
			"count":5217,
			"max":[
				0.07612700015306473,
				0.034008000046014786,
				0.1470559984445572
			],
			"min":[
				-0.07612700015306473,
				-0.04406699910759926,
				0
			],
			"type":"VEC3"
		},
		{
			"bufferView":5,
			"componentType":5126,
			"count":5217,
			"type":"VEC3"
		},
		{
			"bufferView":6,
			"componentType":5126,
			"count":5217,
			"type":"VEC2"
		},
		{
			"bufferView":7,
			"componentType":5123,
			"count":28254,
			"type":"SCALAR"
		},
		{
			"bufferView":8,
			"componentType":5126,
			"count":9518,
			"max":[
				0.12936100363731384,
				0.05000000074505806,
				0.40084347128868103
			],
			"min":[
				-0.12936100363731384,
				-0.0846799984574318,
				0.1279750019311905
			],
			"type":"VEC3"
		},
		{
			"bufferView":9,
			"componentType":5126,
			"count":9518,
			"type":"VEC3"
		},
		{
			"bufferView":10,
			"componentType":5126,
			"count":9518,
			"type":"VEC2"
		},
		{
			"bufferView":11,
			"componentType":5123,
			"count":47292,
			"type":"SCALAR"
		}
	],
	"bufferViews":[
		{
			"buffer":0,
			"byteLength":91272,
			"byteOffset":0,
			"target":34962
		},
		{
			"buffer":0,
			"byteLength":91272,
			"byteOffset":91272,
			"target":34962
		},
		{
			"buffer":0,
			"byteLength":60848,
			"byteOffset":182544,
			"target":34962
		},
		{
			"buffer":0,
			"byteLength":78156,
			"byteOffset":243392,
			"target":34963
		},
		{
			"buffer":0,
			"byteLength":62604,
			"byteOffset":321548,
			"target":34962
		},
		{
			"buffer":0,
			"byteLength":62604,
			"byteOffset":384152,
			"target":34962
		},
		{
			"buffer":0,
			"byteLength":41736,
			"byteOffset":446756,
			"target":34962
		},
		{
			"buffer":0,
			"byteLength":56508,
			"byteOffset":488492,
			"target":34963
		},
		{
			"buffer":0,
			"byteLength":114216,
			"byteOffset":545000,
			"target":34962
		},
		{
			"buffer":0,
			"byteLength":114216,
			"byteOffset":659216,
			"target":34962
		},
		{
			"buffer":0,
			"byteLength":76144,
			"byteOffset":773432,
			"target":34962
		},
		{
			"buffer":0,
			"byteLength":94584,
			"byteOffset":849576,
			"target":34963
		}
	],
	"buffers":[
		{
			"byteLength":944160,
			"uri":"scene.bin"
		}
	]
}
