{
	"asset":{
		"generator":"Khronos glTF Blender I/O v4.2.60",
		"version":"2.0"
	},
	"scene":0,
	"scenes":[
		{
			"name":"Scene",
			"nodes":[
				0,
				1,
				2,
				3,
				4,
				5
			]
		}
	],
	"nodes":[
		{
			"mesh":0,
			"name":"Cube.005"
		},
		{
			"mesh":1,
			"name":"Cube.001"
		},
		{
			"mesh":2,
			"name":"Cube.002"
		},
		{
			"mesh":3,
			"name":"Cube.003"
		},
		{
			"mesh":4,
			"name":"Cube.004"
		},
		{
			"mesh":5,
			"name":"Cube.006"
		}
	],
	"meshes":[
		{
			"name":"Cube.006",
			"primitives":[
				{
					"attributes":{
						"POSITION":0,
						"NORMAL":1,
						"TEXCOORD_0":2
					},
					"indices":3
				}
			]
		},
		{
			"name":"Cube.013",
			"primitives":[
				{
					"attributes":{
						"POSITION":4,
						"NORMAL":5,
						"TEXCOORD_0":6
					},
					"indices":7
				}
			]
		},
		{
			"name":"Cube.014",
			"primitives":[
				{
					"attributes":{
						"POSITION":8,
						"NORMAL":9,
						"TEXCOORD_0":10
					},
					"indices":11
				}
			]
		},
		{
			"name":"Cube.001",
			"primitives":[
				{
					"attributes":{
						"POSITION":12,
						"NORMAL":13,
						"TEXCOORD_0":14
					},
					"indices":15
				}
			]
		},
		{
			"name":"Cube.002",
			"primitives":[
				{
					"attributes":{
						"POSITION":16,
						"NORMAL":17,
						"TEXCOORD_0":18
					},
					"indices":19
				}
			]
		},
		{
			"name":"Cube.003",
			"primitives":[
				{
					"attributes":{
						"POSITION":20,
						"NORMAL":21,
						"TEXCOORD_0":22
					},
					"indices":23
				}
			]
		}
	],
	"accessors":[
		{
			"bufferView":0,
			"componentType":5126,
			"count":162,
			"max":[
				1,
				1,
				1.0000001192092896
			],
			"min":[
				-1.0000004768371582,
				-1,
				0.7999597191810608
			],
			"type":"VEC3"
		},
		{
			"bufferView":1,
			"componentType":5126,
			"count":162,
			"type":"VEC3"
		},
		{
			"bufferView":2,
			"componentType":5126,
			"count":162,
			"type":"VEC2"
		},
		{
			"bufferView":3,
			"componentType":5123,
			"count":264,
			"type":"SCALAR"
		},
		{
			"bufferView":4,
			"componentType":5126,
			"count":162,
			"max":[
				1.0000001192092896,
				1,
				1.0000004768371582
			],
			"min":[
				0.799959659576416,
				-1,
				-0.9999999403953552
			],
			"type":"VEC3"
		},
		{
			"bufferView":5,
			"componentType":5126,
			"count":162,
			"type":"VEC3"
		},
		{
			"bufferView":6,
			"componentType":5126,
			"count":162,
			"type":"VEC2"
		},
		{
			"bufferView":7,
			"componentType":5123,
			"count":264,
			"type":"SCALAR"
		},
		{
			"bufferView":8,
			"componentType":5126,
			"count":162,
			"max":[
				0.9999998211860657,
				1.0000004768371582,
				1.0000004768371582
			],
			"min":[
				-1.0000004768371582,
				0.7999595403671265,
				-1.000000238418579
			],
			"type":"VEC3"
		},
		{
			"bufferView":9,
			"componentType":5126,
			"count":162,
			"type":"VEC3"
		},
		{
			"bufferView":10,
			"componentType":5126,
			"count":162,
			"type":"VEC2"
		},
		{
			"bufferView":11,
			"componentType":5123,
			"count":264,
			"type":"SCALAR"
		},
		{
			"bufferView":12,
			"componentType":5126,
			"count":162,
			"max":[
				1.000000238418579,
				1,
				-0.7999598383903503
			],
			"min":[
				-1.000000238418579,
				-1,
				-1.0000003576278687
			],
			"type":"VEC3"
		},
		{
			"bufferView":13,
			"componentType":5126,
			"count":162,
			"type":"VEC3"
		},
		{
			"bufferView":14,
			"componentType":5126,
			"count":162,
			"type":"VEC2"
		},
		{
			"bufferView":15,
			"componentType":5123,
			"count":264,
			"type":"SCALAR"
		},
		{
			"bufferView":16,
			"componentType":5126,
			"count":162,
			"max":[
				-0.7999598383903503,
				1,
				1.000000238418579
			],
			"min":[
				-1.0000003576278687,
				-1,
				-1.000000238418579
			],
			"type":"VEC3"
		},
		{
			"bufferView":17,
			"componentType":5126,
			"count":162,
			"type":"VEC3"
		},
		{
			"bufferView":18,
			"componentType":5126,
			"count":162,
			"type":"VEC2"
		},
		{
			"bufferView":19,
			"componentType":5123,
			"count":264,
			"type":"SCALAR"
		},
		{
			"bufferView":20,
			"componentType":5126,
			"count":162,
			"max":[
				1.0000004768371582,
				-0.7999595403671265,
				1.0000004768371582
			],
			"min":[
				-0.9999998211860657,
				-1.0000004768371582,
				-1.000000238418579
			],
			"type":"VEC3"
		},
		{
			"bufferView":21,
			"componentType":5126,
			"count":162,
			"type":"VEC3"
		},
		{
			"bufferView":22,
			"componentType":5126,
			"count":162,
			"type":"VEC2"
		},
		{
			"bufferView":23,
			"componentType":5123,
			"count":264,
			"type":"SCALAR"
		}
	],
	"bufferViews":[
		{
			"buffer":0,
			"byteLength":1944,
			"byteOffset":0,
			"target":34962
		},
		{
			"buffer":0,
			"byteLength":1944,
			"byteOffset":1944,
			"target":34962
		},
		{
			"buffer":0,
			"byteLength":1296,
			"byteOffset":3888,
			"target":34962
		},
		{
			"buffer":0,
			"byteLength":528,
			"byteOffset":5184,
			"target":34963
		},
		{
			"buffer":0,
			"byteLength":1944,
			"byteOffset":5712,
			"target":34962
		},
		{
			"buffer":0,
			"byteLength":1944,
			"byteOffset":7656,
			"target":34962
		},
		{
			"buffer":0,
			"byteLength":1296,
			"byteOffset":9600,
			"target":34962
		},
		{
			"buffer":0,
			"byteLength":528,
			"byteOffset":10896,
			"target":34963
		},
		{
			"buffer":0,
			"byteLength":1944,
			"byteOffset":11424,
			"target":34962
		},
		{
			"buffer":0,
			"byteLength":1944,
			"byteOffset":13368,
			"target":34962
		},
		{
			"buffer":0,
			"byteLength":1296,
			"byteOffset":15312,
			"target":34962
		},
		{
			"buffer":0,
			"byteLength":528,
			"byteOffset":16608,
			"target":34963
		},
		{
			"buffer":0,
			"byteLength":1944,
			"byteOffset":17136,
			"target":34962
		},
		{
			"buffer":0,
			"byteLength":1944,
			"byteOffset":19080,
			"target":34962
		},
		{
			"buffer":0,
			"byteLength":1296,
			"byteOffset":21024,
			"target":34962
		},
		{
			"buffer":0,
			"byteLength":528,
			"byteOffset":22320,
			"target":34963
		},
		{
			"buffer":0,
			"byteLength":1944,
			"byteOffset":22848,
			"target":34962
		},
		{
			"buffer":0,
			"byteLength":1944,
			"byteOffset":24792,
			"target":34962
		},
		{
			"buffer":0,
			"byteLength":1296,
			"byteOffset":26736,
			"target":34962
		},
		{
			"buffer":0,
			"byteLength":528,
			"byteOffset":28032,
			"target":34963
		},
		{
			"buffer":0,
			"byteLength":1944,
			"byteOffset":28560,
			"target":34962
		},
		{
			"buffer":0,
			"byteLength":1944,
			"byteOffset":30504,
			"target":34962
		},
		{
			"buffer":0,
			"byteLength":1296,
			"byteOffset":32448,
			"target":34962
		},
		{
			"buffer":0,
			"byteLength":528,
			"byteOffset":33744,
			"target":34963
		}
	],
	"buffers":[
		{
			"byteLength":34272,
			"uri":"scene.bin"
		}
	]
}
